<svg xmlns="http://www.w3.org/2000/svg" xmlns:xlink="http://www.w3.org/1999/xlink" width="16" height="24" viewBox="0 0 16 24"><defs><clipPath id="a" transform="translate(-4)"><rect width="24" height="24" style="fill:none"/></clipPath></defs><title>figma</title><g style="clip-path:url(#a)"><path d="M8,24a4,4,0,0,0,4-4V16H8a4,4,0,0,0,0,8Z" transform="translate(-4)" style="fill:#0acf83"/><path d="M4,12A4,4,0,0,1,8,8h4v8H8A4,4,0,0,1,4,12Z" transform="translate(-4)" style="fill:#a259ff"/><path d="M4,4A4,4,0,0,1,8,0h4V8H8A4,4,0,0,1,4,4Z" transform="translate(-4)" style="fill:#f24e1e"/><path d="M12,0h4a4,4,0,0,1,0,8H12Z" transform="translate(-4)" style="fill:#ff7262"/><path d="M20,12a4,4,0,1,1-4-4A4,4,0,0,1,20,12Z" transform="translate(-4)" style="fill:#1abcfe"/></g></svg>