<svg xmlns="http://www.w3.org/2000/svg" width="24" height="24" viewBox="0 0 24 24"><title>javascript</title><path d="M0,0V24H24V0ZM13.06,18.72a3.07,3.07,0,0,1-3.37,3.4,3.51,3.51,0,0,1-3.38-2.06h0l1.84-1.12c.35.63.67,1.16,1.45,1.16s1.21-.29,1.21-1.41V11h2.25Zm5.33,3.4a4.32,4.32,0,0,1-4.1-2.31h0l1.83-1.06a2.46,2.46,0,0,0,2.22,1.37c.94,0,1.54-.47,1.54-1.11s-.62-1.05-1.65-1.5l-.56-.24C16,16.58,15,15.71,15,13.87a3,3,0,0,1,3.3-3,3.33,3.33,0,0,1,3.21,1.8l-1.76,1.13a1.52,1.52,0,0,0-1.45-1,1,1,0,0,0-1.08,1c0,.68.42.95,1.39,1.37l.56.24c1.92.82,3,1.66,3,3.55S20.54,22.12,18.39,22.12Z" style="fill:#f7df1e"/><path d="M10.81,18.69c0,1.12-.47,1.41-1.21,1.41s-1.1-.53-1.45-1.16L6.31,20.06h0a3.51,3.51,0,0,0,3.38,2.06,3.07,3.07,0,0,0,3.37-3.4V11H10.81Z"/><path d="M19.13,15.43l-.56-.24c-1-.42-1.39-.69-1.39-1.37a1,1,0,0,1,1.08-1,1.52,1.52,0,0,1,1.45,1l1.76-1.13a3.33,3.33,0,0,0-3.21-1.8,3,3,0,0,0-3.3,3c0,1.84,1.08,2.71,2.71,3.4l.56.24c1,.45,1.65.73,1.65,1.5s-.6,1.11-1.54,1.11a2.46,2.46,0,0,1-2.22-1.37l-1.83,1.06h0a4.32,4.32,0,0,0,4.1,2.31c2.15,0,3.74-1.11,3.74-3.14S21.05,16.25,19.13,15.43Z"/></svg>