<svg xmlns="http://www.w3.org/2000/svg" width="24" height="24" viewBox="0 0 24 24"><title>jquery</title><path d="M1.53,5.64C-.6,8.81-.34,12.93,1.29,16.29l.11.24c0,.06.06.11.08.16a.56.56,0,0,0,.05.08l.08.16.16.28a1.19,1.19,0,0,0,.09.15c0,.1.12.19.17.29l.08.12.31.47.24.32.09.12L3,19l.08.1.31.36h0a3.12,3.12,0,0,0,.43.46,3,3,0,0,0,.25.25l.1.1.33.33h0l.06.05a4,4,0,0,0,.31.27L5,21l.26.21.14.11.29.21.1.08,0,0,.28.2.12.08.44.28.12.07.34.19a1,1,0,0,0,.18.1l.23.13.06,0,.09.05.38.18.08,0,.43.19.11,0,.41.16h0l.46.16a.35.35,0,0,0,.11,0,4.26,4.26,0,0,0,.47.15c10.28,1.94,13.26-6.42,13.26-6.42-2.51,3.4-7,4.29-11.17,3.29-.16,0-.31-.09-.47-.13l-.57-.19-.06,0c-.14,0-.27-.1-.4-.15l-.11,0-.43-.19-.09,0-.36-.18-.11-.05-.28-.15-.19-.1-.34-.19a.41.41,0,0,0-.11-.07l-.44-.28-.11-.08-.32-.22-.1-.07-.3-.22-.13-.11-.26-.21-.12-.1c-.12-.1-.23-.19-.33-.29s0,0,0,0l-.35-.32-.1-.1-.25-.26-.1-.1c-.1-.11-.21-.22-.31-.34h0c-.11-.12-.21-.25-.31-.37l-.08-.1-.23-.29c-.12-.15-.23-.31-.34-.47C2.15,11.78,1.31,7.21,3.18,3.46ZM8.12,3a7.89,7.89,0,0,0-.25,7.8,9.17,9.17,0,0,0,.67,1.18,5.62,5.62,0,0,0,.8,1,3.92,3.92,0,0,0,.34.37l.09.1c.11.11.23.23.35.33l0,0,.41.35a.39.39,0,0,0,.1.08l.42.33h0l.2.13a.47.47,0,0,0,.09.06,3.53,3.53,0,0,0,.32.21l0,0,.29.16.1,0,.19.11h0l.4.2a3.93,3.93,0,0,0,.43.18l.14.06.32.11.13,0a3.88,3.88,0,0,0,.45.14c7.94,1.36,9.77-5,9.77-5a7.39,7.39,0,0,1-8.26,2.72l-.45-.13-.14,0c-.1,0-.21-.08-.31-.12l-.14-.06-.34-.14-.09,0-.42-.2-.2-.11-.12-.06-.27-.16-.06,0-.31-.21-.1-.06-.21-.14L12.15,12l-.09-.08A10,10,0,0,1,8.81,7.09a7.75,7.75,0,0,1,.56-6Zm5.55-2a5,5,0,0,0-.38,4.63A6.43,6.43,0,0,0,16.9,9.1l.2.07.09,0,.28.09C21.85,10.16,23,7,23.35,6.48c-1,1.55-2.79,1.93-4.94,1.39a6.45,6.45,0,0,1-1.13-.44,6.76,6.76,0,0,1-1.08-.68C14.28,5.23,13.09,2.35,14.34,0Z" transform="translate(0)" style="fill:#1b75bb"/></svg>