<svg xmlns="http://www.w3.org/2000/svg" xmlns:xlink="http://www.w3.org/1999/xlink" width="24" height="24" viewBox="0 0 24 24"><defs><linearGradient id="a" x1="19.4" y1="18.12" x2="15.19" y2="26.14" gradientTransform="matrix(1, 0, 0, -1, 0, 26)" gradientUnits="userSpaceOnUse"><stop offset="0" stop-color="#80c3e6"/><stop offset="1" stop-color="#3380c2"/></linearGradient><linearGradient id="b" x1="23.79" y1="7.78" x2="16.53" y2="9.45" gradientTransform="matrix(1, 0, 0, -1, 0, 26)" gradientUnits="userSpaceOnUse"><stop offset="0" stop-color="#f38649"/><stop offset="0.18" stop-color="#f28147"/><stop offset="0.41" stop-color="#ef7242"/><stop offset="0.65" stop-color="#ea5a3a"/><stop offset="0.91" stop-color="#e4382e"/><stop offset="1" stop-color="#e12a29"/></linearGradient><linearGradient id="c" x1="3.1" y1="13.92" x2="13.83" y2="23.98" gradientTransform="matrix(1, 0, 0, -1, 0, 26)" gradientUnits="userSpaceOnUse"><stop offset="0" stop-color="#42ab4a"/><stop offset="1" stop-color="#add155"/></linearGradient><linearGradient id="d" x1="7.65" y1="1.02" x2="11.41" y2="18.52" xlink:href="#c"/></defs><title>modx</title><path d="M19,10l5-7.71H12L10.31,4.89Z" style="fill:url(#a)"/><path d="M10.31,4.89l.85-1.32L19,10,10.31,4.89Z" style="opacity:0.15000000596046448;isolation:isolate"/><path d="M21.64,24V12.41l-2.59-1.56-5.46,8.3L21.64,24Z" style="fill:url(#b)"/><path d="M13.59,19.15l1.35.81,4.11-9.11-5.46,8.3Z" style="opacity:0.15000000596046448;isolation:isolate"/><path d="M2.27,0V11.59l2.79,1.56L19,10Z" style="fill:url(#c)"/><path d="M5,14,0,21.61H12l7-10.76Z" style="fill:url(#d)"/></svg>