<svg xmlns="http://www.w3.org/2000/svg" width="24" height="21" viewBox="0 0 24 21"><title>react</title><path d="M19.73,6.81c-.25-.09-.51-.17-.77-.24l.12-.52c.58-2.79.2-5-1.1-5.78s-3.3,0-5.37,1.8c-.21.17-.4.35-.6.54a4.48,4.48,0,0,0-.4-.36C9.45.35,7.27-.44,6,.3S4.35,3.12,4.87,5.77l.18.78-.89.28C1.62,7.7,0,9.06,0,10.48s1.74,2.93,4.39,3.82l.65.2c-.07.28-.14.56-.19.84C4.35,17.94,4.74,20,6,20.71s3.45,0,5.55-1.83c.17-.14.34-.3.5-.45l.65.58c2,1.73,4.06,2.42,5.3,1.72s1.71-3,1.17-5.65c-.05-.22-.09-.43-.15-.63l.45-.14C22.21,13.41,24,12,24,10.48S22.32,7.68,19.73,6.81Zm-.59,6.54-.41.13a23,23,0,0,0-1.21-3,23.61,23.61,0,0,0,1.17-2.94l.71.22C21.62,8.51,23,9.62,23,10.48S21.51,12.58,19.14,13.35Zm-1,1.92a8.64,8.64,0,0,1,.12,3.12,2.06,2.06,0,0,1-.79,1.46c-.76.43-2.37-.13-4.12-1.6l-.6-.54a25,25,0,0,0,2-2.52A23.4,23.4,0,0,0,18,14.7C18.07,14.9,18.11,15.09,18.15,15.27Zm-10,4.51a2.18,2.18,0,0,1-1.68.06c-.76-.43-1.07-2.09-.64-4.31,0-.26.11-.52.17-.78a26.31,26.31,0,0,0,3.24.46,24.08,24.08,0,0,0,2.06,2.5l-.46.41A8.86,8.86,0,0,1,8.18,19.78ZM4.72,13.35a8.8,8.8,0,0,1-2.8-1.47A2.09,2.09,0,0,1,1,10.48c0-.86,1.3-2,3.47-2.7.26-.09.54-.18.83-.26a22.9,22.9,0,0,0,1.17,3,26.63,26.63,0,0,0-1.19,3ZM5.88,5.58c-.45-2.27-.15-4,.6-4.41s2.58.2,4.45,1.83l.36.33a25,25,0,0,0-2,2.48,26.89,26.89,0,0,0-3.2.49c-.07-.24-.12-.48-.17-.72ZM16.23,8.09c-.23-.4-.47-.79-.73-1.18.77.1,1.5.22,2.19.38a18.46,18.46,0,0,1-.77,2Q16.59,8.71,16.23,8.09ZM12,4.05a20.26,20.26,0,0,1,1.41,1.67c-.94,0-1.89,0-2.83,0A21.79,21.79,0,0,1,12,4.05ZM7.76,8.1c-.23.4-.46.81-.67,1.22-.3-.7-.56-1.38-.77-2C7,7.13,7.74,7,8.5,6.91c-.26.39-.5.79-.74,1.19Zm.76,6a19.32,19.32,0,0,1-2.21-.35,20.67,20.67,0,0,1,.78-2.08c.21.41.44.82.68,1.22S8.26,13.73,8.52,14.12ZM12,17a19.16,19.16,0,0,1-1.44-1.7c.46,0,.92,0,1.4,0s1,0,1.45,0A21.22,21.22,0,0,1,12,17Zm4.89-5.33c.32.72.59,1.42.81,2.08-.7.16-1.45.28-2.24.38.25-.4.5-.8.74-1.21S16.71,12.08,16.93,11.65Zm-1.58.75c-.36.62-.75,1.23-1.15,1.83-.73,0-1.47.07-2.2.07s-1.47,0-2.17-.06C9.41,13.64,9,13,8.65,12.41h0c-.36-.62-.7-1.26-1-1.91.32-.64.66-1.28,1-1.9h0C9,8,9.4,7.37,9.81,6.78c.72,0,1.45-.08,2.19-.08h0c.74,0,1.48,0,2.19.08.41.59.79,1.2,1.16,1.82s.71,1.25,1,1.89C16.06,11.14,15.72,11.78,15.35,12.4ZM17.46,1.14c.81.46,1.12,2.29.62,4.71,0,.15-.07.31-.11.46a25.43,25.43,0,0,0-3.21-.49,22.07,22.07,0,0,0-2-2.49c.18-.17.36-.34.55-.5C15.05,1.31,16.71.71,17.46,1.14ZM12,8.37a2.11,2.11,0,1,1-2.14,2.11A2.13,2.13,0,0,1,12,8.37Z" style="fill:#00d8ff"/></svg>