<svg xmlns="http://www.w3.org/2000/svg" width="24" height="24" viewBox="0 0 24 24"><title>symfony</title><path d="M12,0A12,12,0,1,0,24,12,12,12,0,0,0,12,0Zm6.45,6.93a.84.84,0,0,1-1-.81.82.82,0,0,1,.17-.54c.12-.24.15-.27.15-.37,0-.32-.5-.33-.63-.32-1.79.05-2.27,2.48-2.65,4.46l-.19,1a3.27,3.27,0,0,0,2.18-.3c.58-.38-.16-.76-.07-1.19a.86.86,0,0,1,.81-.65.82.82,0,0,1,.74.91c0,.76-1,1.81-3.06,1.77-.25,0-.48,0-.69,0L13.87,13a12.21,12.21,0,0,1-2.43,5.7A4.82,4.82,0,0,1,8,20.64c-1.19,0-2-.59-2-1.44a1.27,1.27,0,0,1,1.17-1.29,1,1,0,0,1,1.1,1,.66.66,0,0,1-.38.68c-.1.08-.26.17-.25.35a.31.31,0,0,0,.35.26A1.84,1.84,0,0,0,9,19.73c1.16-1,1.61-2.65,2.2-5.72l.12-.74a32.86,32.86,0,0,1,.76-3.22c-.82-.61-1.31-1.38-2.41-1.67a1.3,1.3,0,0,0-1.54.37,1.12,1.12,0,0,0,.11,1.49l.62.67a2.92,2.92,0,0,1,1,2.45c-.24,1.44-2,2.55-4,1.93C4.15,14.75,3.82,13.52,4,12.84a.82.82,0,0,1,1.12-.57A1,1,0,0,1,5.7,13.5a1.61,1.61,0,0,1-.09.24,2.42,2.42,0,0,0-.21.39c-.11.36.39.62.73.73a1.36,1.36,0,0,0,1.73-.8,1.11,1.11,0,0,0-.34-1.14l-.73-.79a2.81,2.81,0,0,1-.72-2.59,2.47,2.47,0,0,1,.86-1.25,3.13,3.13,0,0,1,2.81-.52,6.8,6.8,0,0,1,2.53,1.76,10.38,10.38,0,0,1,1.88-3.45,4.34,4.34,0,0,1,3.07-1.65h0c1.22,0,2.14.51,2.17,1.39A1,1,0,0,1,18.45,6.93Z" style="fill:#1a171b"/></svg>