<svg xmlns="http://www.w3.org/2000/svg" width="18" height="18" viewBox="0 0 18 18"><path d="M16,1.75C15.5,1.34,13.6,0,9.36,0H8.54C7,0,3.74.26,1.91,1.85.56,3.13.09,5,0,7.37s-.1,6.71,4.34,7.9v1.82s0,.72.47.87.85-.2,1.29-.67c.09-.09.18-.2.29-.3l1.1-1.19a17.83,17.83,0,0,0,5.64-.39l.23-.06a5.33,5.33,0,0,0,4.43-4.93C18.4,5.89,17.53,3,16,1.75ZM13.5,11.51a3.18,3.18,0,0,1-.73.86,1.36,1.36,0,0,1-.88.36.81.81,0,0,1-.31,0,11.39,11.39,0,0,1-2.06-.9A12.29,12.29,0,0,1,7,10.08a11,11,0,0,1-1.9-2.53,9,9,0,0,1-1-1.95.9.9,0,0,1,0-.4,1.26,1.26,0,0,1,.37-.71,3.67,3.67,0,0,1,.9-.71.83.83,0,0,1,.49-.09.74.74,0,0,1,.4.23,9.17,9.17,0,0,1,1.18,1.6.72.72,0,0,1-.13.94l-.45.33a.6.6,0,0,0-.18.49,4.47,4.47,0,0,0,3.11,3,.63.63,0,0,0,.51-.18l.36-.42a.82.82,0,0,1,1-.13,11.59,11.59,0,0,1,1.7,1.16A.62.62,0,0,1,13.5,11.51ZM10.51,5h0A3.35,3.35,0,0,0,9.37,4.8a.23.23,0,0,1-.27-.17.23.23,0,0,1,.18-.28h.09a3.55,3.55,0,0,1,2.41,1,3,3,0,0,1,.84,2.25.2.2,0,0,1-.07.16.23.23,0,0,1-.16.06.22.22,0,0,1-.24-.2v0a2.57,2.57,0,0,0-.71-1.93A3,3,0,0,0,10.51,5Zm.92,2.16h0a.11.11,0,0,1,0,.08.22.22,0,0,1-.05.08h-.08a.14.14,0,0,1-.09,0A.2.2,0,0,1,11,7.28.2.2,0,0,1,11,7.13,1.11,1.11,0,0,0,9.85,6h-.1a.23.23,0,0,1-.23-.23.24.24,0,0,1,.23-.23A1.59,1.59,0,0,1,11.43,7Zm2.42,1v0a.22.22,0,0,1-.17.07A.23.23,0,0,1,13.44,8a4.27,4.27,0,0,0-1.3-3.25,4.35,4.35,0,0,0-1.46-.84A4.59,4.59,0,0,0,9,3.64a.22.22,0,0,1-.23-.21h0V3.33l.06-.07H9a5,5,0,0,1,3.53,1.31,5,5,0,0,1,1.1,1.65,4.55,4.55,0,0,1,.33,1.93Z"/></svg>