<svg xmlns="http://www.w3.org/2000/svg" viewBox="0 0 20 36"><path d="M16.89,2H14.5V3.2a.8.8,0,0,1-.8.8H6.3a.8.8,0,0,1-.8-.8V2H3.11A1.11,1.11,0,0,0,2,3.11V32.89A1.11,1.11,0,0,0,3.11,34H16.89A1.11,1.11,0,0,0,18,32.89V3.11A1.11,1.11,0,0,0,16.89,2Z" style="fill:#9cffe5"/><path d="M16.89,0H3.11A3.11,3.11,0,0,0,0,3.11V32.89A3.11,3.11,0,0,0,3.11,36H16.89A3.11,3.11,0,0,0,20,32.89V3.11A3.11,3.11,0,0,0,16.89,0ZM18,32.89A1.11,1.11,0,0,1,16.89,34H3.11A1.11,1.11,0,0,1,2,32.89V3.11A1.11,1.11,0,0,1,3.11,2H5.5V3.2a.8.8,0,0,0,.8.8h7.4a.8.8,0,0,0,.8-.8V2h2.39A1.11,1.11,0,0,1,18,3.11Z" style="fill:#282735"/></svg>