<svg xmlns="http://www.w3.org/2000/svg" width="18" height="18" viewBox="0 0 18 18"><path d="M9,6a3,3,0,1,0,3,3A3,3,0,0,0,9,6Z"/><path d="M14.61,0H3.39A3.39,3.39,0,0,0,0,3.39V14.61A3.39,3.39,0,0,0,3.39,18H14.61A3.39,3.39,0,0,0,18,14.61V3.39A3.39,3.39,0,0,0,14.61,0ZM12.26,12.24A4.61,4.61,0,1,1,13.61,9,4.61,4.61,0,0,1,12.26,12.24Zm1.54-7A1.07,1.07,0,0,1,12.72,4.2a1.16,1.16,0,0,1,.08-.42A1.21,1.21,0,0,1,13,3.43a1.25,1.25,0,0,1,.35-.23,1.09,1.09,0,0,1,.82,0,1.41,1.41,0,0,1,.35.23,1,1,0,0,1,.23.35,1,1,0,0,1,.08.42A1.07,1.07,0,0,1,13.8,5.27Z"/></svg>