<svg xmlns="http://www.w3.org/2000/svg" viewBox="0 0 36 36"><circle cx="3" cy="11" r="1" style="fill:#9cffe5"/><circle cx="3" cy="25" r="1" style="fill:#9cffe5"/><circle cx="23" cy="33" r="1" style="fill:#9cffe5"/><circle cx="11" cy="31" r="1" style="fill:#9cffe5"/><circle cx="25" cy="5" r="1" style="fill:#9cffe5"/><circle cx="33" cy="25" r="1" style="fill:#9cffe5"/><circle cx="33" cy="11" r="1" style="fill:#9cffe5"/><circle cx="13" cy="3" r="1" style="fill:#9cffe5"/><path d="M22.41,9l1.3-1.3A3,3,0,1,0,22.3,6.29L21.59,7h-2L17,9.59v16L15.59,27h-2l-1.3,1.3a3,3,0,1,0,1.41,1.41l.71-.71h2L19,26.41v-16L20.41,9ZM25,4a1,1,0,1,1-1,1A1,1,0,0,1,25,4ZM11,32a1,1,0,1,1,1-1A1,1,0,0,1,11,32Z" style="fill:#282735"/><path d="M8,21.41,9.59,23H14V5.82a3,3,0,1,0-2,0V21H10.41L7,17.59v-4l-1.3-1.3A3,3,0,1,0,3,14a3,3,0,0,0,1.29-.3l.71.71v4L6.59,20l-2.3,2.3A3,3,0,1,0,6,25a3,3,0,0,0-.3-1.29ZM13,2a1,1,0,1,1-1,1A1,1,0,0,1,13,2ZM3,12a1,1,0,1,1,1-1A1,1,0,0,1,3,12ZM3,26a1,1,0,1,1,1-1A1,1,0,0,1,3,26Z" style="fill:#282735"/><path d="M33,22a3,3,0,0,0-1.29.3L31,21.59v-4L29.41,16l2.3-2.3a3,3,0,1,0-1.41-1.41L28,14.59,26.41,13H22V30.18a3,3,0,1,0,2,0V15h1.59l1.7,1.71L29,18.41v4l1.3,1.3A3,3,0,1,0,33,22Zm0-12a1,1,0,1,1-1,1A1,1,0,0,1,33,10ZM23,34a1,1,0,1,1,1-1A1,1,0,0,1,23,34Zm10-8a1,1,0,1,1,1-1A1,1,0,0,1,33,26Z" style="fill:#282735"/></svg>