<svg xmlns="http://www.w3.org/2000/svg" width="24" height="24" viewBox="0 0 24 24"><title>photoshop</title><path d="M8,6.51c-.45,0-.89,0-1.1,0V11c.27,0,.48,0,.93,0,1.34,0,2.59-.47,2.59-2.28C10.46,7.25,9.56,6.51,8,6.51Z" style="fill:#001e36"/><path d="M20.57,0H3.43A3.44,3.44,0,0,0,0,3.43V20.57A3.44,3.44,0,0,0,3.43,24H20.57A3.44,3.44,0,0,0,24,20.57V3.43A3.44,3.44,0,0,0,20.57,0ZM7.83,12.81l-.89,0v4.39c0,.1,0,.14-.13.14H5c-.09,0-.12,0-.12-.13V4.89c0-.07.16-.13.25-.13,1,0,2-.06,2.95-.06,3.17,0,4.4,1.74,4.4,4C12.52,11.57,10.41,12.81,7.83,12.81Zm8.23,4.68A5,5,0,0,1,13.72,17a.19.19,0,0,1-.09-.19V15.13c0-.11,0-.15.13-.09a4.15,4.15,0,0,0,2.3.67c.9,0,1.28-.37,1.28-.88s-.26-.78-1.41-1.38c-1.63-.77-2.3-1.56-2.3-2.89s1.15-2.69,3.14-2.69a5.61,5.61,0,0,1,2.06.31.27.27,0,0,1,.11.23V10c0,.09-.06.15-.17.11a4.13,4.13,0,0,0-2-.49h0c-.9,0-1.21.46-1.21.83s.21.7,1.42,1.32c1.79.88,2.35,1.7,2.35,2.93C19.34,16.5,18,17.49,16.06,17.49Z" style="fill:#001e36"/><path d="M17,11.75c-1.21-.62-1.42-.9-1.42-1.32s.31-.83,1.21-.83h0a4.13,4.13,0,0,1,2,.49c.11,0,.17,0,.17-.11V8.41a.27.27,0,0,0-.11-.23,5.61,5.61,0,0,0-2.06-.31c-2,0-3.14,1.22-3.14,2.69s.67,2.12,2.3,2.89c1.15.6,1.41,1,1.41,1.38s-.38.88-1.28.88a4.15,4.15,0,0,1-2.3-.67c-.08-.06-.13,0-.13.09v1.68a.19.19,0,0,0,.09.19,5,5,0,0,0,2.34.49c1.89,0,3.28-1,3.28-2.81C19.34,13.45,18.78,12.63,17,11.75Z" style="fill:#31a8ff"/><path d="M8.12,4.7c-1,0-2,0-2.95.06-.09,0-.25.06-.25.13v12.3c0,.09,0,.13.12.13H6.81c.1,0,.13,0,.13-.14V12.79l.89,0c2.58,0,4.69-1.24,4.69-4.15C12.52,6.44,11.29,4.7,8.12,4.7ZM7.87,11c-.45,0-.66,0-.93,0V6.55c.21,0,.65,0,1.1,0,1.52,0,2.42.74,2.42,2.19C10.46,10.51,9.21,11,7.87,11Z" style="fill:#31a8ff"/></svg>