<?xml version="1.0" standalone="no"?>
<!DOCTYPE svg PUBLIC "-//W3C//DTD SVG 20010904//EN"
 "http://www.w3.org/TR/2001/REC-SVG-20010904/DTD/svg10.dtd">
<svg version="1.0" xmlns="http://www.w3.org/2000/svg"
 width="250.000000pt" height="250.000000pt" viewBox="0 0 250.000000 250.000000"
 preserveAspectRatio="xMidYMid meet">
<metadata>
Created by potrace 1.11, written by Peter Selinger 2001-2013
</metadata>
<g transform="translate(0.000000,250.000000) scale(0.100000,-0.100000)"
fill="#000000" stroke="none">
<path d="M0 1249 c0 -1186 1 -1250 18 -1245 9 3 33 7 52 10 19 3 114 21 210
40 145 29 283 55 422 82 13 2 34 6 48 9 14 3 59 12 100 20 181 34 246 46 261
51 16 4 17 86 17 1034 0 945 -2 1030 -17 1034 -14 4 -139 29 -211 42 -14 2
-45 9 -70 14 -25 5 -164 32 -310 60 -146 28 -320 62 -387 76 -67 13 -125 24
-128 24 -3 0 -5 -563 -5 -1251z m680 0 c0 -495 4 -461 -50 -461 -11 0 -42 0
-69 1 l-49 1 0 460 1 459 51 3 c28 2 66 1 84 -1 l32 -3 0 -459z"/>
<path d="M2355 2474 c-60 -12 -124 -25 -141 -28 -16 -3 -91 -17 -165 -32 -74
-14 -145 -28 -159 -31 -14 -2 -56 -10 -95 -18 -38 -8 -81 -16 -95 -19 -14 -2
-86 -16 -160 -31 -74 -15 -142 -28 -150 -30 -13 -2 -15 -124 -15 -1035 l0
-1033 95 -19 c52 -10 109 -21 125 -23 17 -3 84 -17 150 -30 66 -13 136 -27
155 -30 19 -3 78 -15 130 -25 127 -25 397 -78 438 -85 l32 -5 0 1250 c0 1184
-1 1250 -17 1249 -10 -1 -67 -12 -128 -25z m-110 -766 c5 -5 7 -40 6 -90 l-1
-48 -87 1 c-49 1 -108 1 -133 0 l-45 -1 0 -390 0 -390 -27 -1 c-16 -1 -37 -1
-48 -1 -11 0 -36 0 -55 1 l-35 1 -2 393 -3 392 -130 0 -129 0 -1 55 c-1 30 0
62 2 70 4 13 49 15 344 13 188 -1 342 -3 344 -5z"/>
</g>
</svg>
