<svg xmlns="http://www.w3.org/2000/svg" xmlns:xlink="http://www.w3.org/1999/xlink"><symbol id="close-icon" viewBox="0 0 22 22"><path d="M21.83.77l-.6-.6a.55.55 0 00-.8 0l-9 9a.57.57 0 01-.8 0l-9-9a.55.55 0 00-.8 0l-.6.6a.55.55 0 000 .8l9 9a.57.57 0 010 .8l-9 9a.55.55 0 000 .8l.6.6a.55.55 0 00.8 0l9-9a.57.57 0 01.8 0l9 9a.55.55 0 00.8 0l.6-.6a.55.55 0 000-.8l-9-9a.57.57 0 010-.8l9-9a.55.55 0 000-.8z"/></symbol><symbol id="drop-arrow"><path d="M15.062 10a.5.5 0 01.415.779l-3.089 4.598a.5.5 0 01-.832-.003l-3.043-4.598A.5.5 0 018.93 10h6.132z"/></symbol></svg>