<svg xmlns="http://www.w3.org/2000/svg" viewBox="0 0 345.44 494"><path d="M322.55,168.58l-2.43-.81,22.23-66.34a40.47,40.47,0,0,0-25.54-51.25L176.27,3.1A40.51,40.51,0,0,0,125,28.63L3.1,392.57a40.49,40.49,0,0,0,25.53,51.25L169.18,490.9a40.49,40.49,0,0,0,51.25-25.53L304.31,215l2.42.81Z" transform="translate(0 0)" style="fill:none;stroke:#282735;stroke-width:2px"/><path d="M315,60.69l-18.35-6.15a14.36,14.36,0,0,1-18.9,14.54l-80.51-27a14.36,14.36,0,0,1-6.33-23l-17.14-5.74a30.22,30.22,0,0,0-38.27,19.07L13.78,395.85a30.26,30.26,0,0,0,19.07,38.28l141.22,47.3a30.23,30.23,0,0,0,38.28-19.07L334.08,99A30.21,30.21,0,0,0,315,60.69Z" transform="translate(0 0)" style="fill:none;stroke:#282735;stroke-width:2px"/><path d="M129,132.12,279.7,182.6a3,3,0,0,0,2.25-.15,2.94,2.94,0,0,0,1.47-1.7L296,143.36a2.95,2.95,0,0,0-1.86-3.72L143.38,89.15A3,3,0,0,0,139.65,91l-12.52,37.38a3,3,0,0,0,1.86,3.73Z" transform="translate(0 0)" style="fill:none;stroke:#282735;stroke-width:2px"/><path d="M104.11,206.37a1.75,1.75,0,0,0-2.23,1.11L78.7,276.69a1.74,1.74,0,0,0,.09,1.34,1.79,1.79,0,0,0,1,.89l150.71,50.49a1.76,1.76,0,0,0,1.35-.1,1.73,1.73,0,0,0,.89-1l23.18-69.2a1.77,1.77,0,0,0-1.12-2.23Z" transform="translate(0 0)" style="fill:none;stroke:#282735;stroke-width:2px"/><path d="M259.14,240.28l-67-22.44a2.93,2.93,0,0,1-1.85-3.72l12.52-37.39a2.94,2.94,0,0,1,3.73-1.85l67,22.43a3,3,0,0,1,1.86,3.73l-12.53,37.39a3,3,0,0,1-3.72,1.85Z" transform="translate(0 0)" style="fill:none;stroke:#282735;stroke-width:2px"/><path d="M49.14,370.46l67,22.44a2.93,2.93,0,0,0,3.72-1.85l23.37-69.76a3,3,0,0,0-1.85-3.73l-67-22.44A2.95,2.95,0,0,0,70.66,297L47.29,366.74a3,3,0,0,0,.15,2.25A2.94,2.94,0,0,0,49.14,370.46Z" transform="translate(0 0)" style="fill:none;stroke:#282735;stroke-width:2px"/><path d="M131.76,398.14l67,22.44a2.94,2.94,0,0,0,3.72-1.86L225.83,349a3,3,0,0,0-.15-2.25,2.94,2.94,0,0,0-1.7-1.47L157,322.8a2.93,2.93,0,0,0-3.72,1.85L129.9,394.41a3,3,0,0,0,1.86,3.73Z" transform="translate(0 0)" style="fill:none;stroke:#282735;stroke-width:2px"/><path d="M118.58,249.23a12,12,0,1,0-12-12A12,12,0,0,0,118.58,249.23Z" transform="translate(0 0)" style="fill:#9cffe5;stroke:#282735;stroke-width:2px"/><path d="M147.37,238.46a2,2,0,0,0-.77-.11,2.19,2.19,0,0,0-.76.2,2,2,0,0,0-.62.48,2,2,0,0,0-.39.68,2.07,2.07,0,0,0-.1.78,2,2,0,0,0,.69,1.37,2,2,0,0,0,.68.38l89.33,29.93a2,2,0,0,0,.77.1,2.19,2.19,0,0,0,.76-.2,2,2,0,0,0,.62-.48,2.19,2.19,0,0,0,.39-.68,2,2,0,0,0-.11-1.53,2.2,2.2,0,0,0-.48-.62,2,2,0,0,0-.68-.38Z" transform="translate(0 0)" style="fill:none;stroke:#282735;stroke-width:2px"/><path d="M143.56,249.82a2.24,2.24,0,0,0-.77-.1,2.08,2.08,0,0,0-1.38.68,2.19,2.19,0,0,0-.39.68,2.06,2.06,0,0,0-.09.78,1.78,1.78,0,0,0,.2.75,2,2,0,0,0,.48.62,2,2,0,0,0,.68.38l38.44,12.88a2.05,2.05,0,0,0,1.52-.11,2,2,0,0,0,1-1.15A2,2,0,0,0,182,262.7Z" transform="translate(0 0)" style="fill:none;stroke:#282735;stroke-width:2px"/><path d="M102.5,256.28c-1.44-.48-2.9,0-3.25,1s.54,2.29,2,2.77l123.24,41.29c1.44.48,2.9,0,3.25-1s-.54-2.29-2-2.77Z" transform="translate(0 0)" style="fill:none;stroke:#282735;stroke-width:2px"/><path d="M98.69,267.65c-1.44-.48-2.9,0-3.25,1s.54,2.29,2,2.77l123.24,41.29c1.44.48,2.9,0,3.25-1s-.54-2.29-2-2.77Z" transform="translate(0 0)" style="fill:none;stroke:#282735;stroke-width:2px"/><path d="M160.08,129a12,12,0,1,0-12-12A12,12,0,0,0,160.08,129Z" transform="translate(0 0)" style="fill:#9cffe5;stroke:#282735;stroke-width:2px"/><path d="M188.88,118.26a2,2,0,0,0-.78-.1,2.2,2.2,0,0,0-.75.2,2,2,0,0,0-.61.48,2,2,0,0,0-.49,1.45,2.08,2.08,0,0,0,.2.75,2,2,0,0,0,.48.62,2,2,0,0,0,.68.39L276.94,152a2,2,0,0,0,1.52-.11,2,2,0,0,0,.89-2.67,2,2,0,0,0-1.14-1Z" transform="translate(0 0)" style="fill:none;stroke:#282735;stroke-width:2px"/><path d="M185.07,129.63a1.87,1.87,0,0,0-.78-.1,2.2,2.2,0,0,0-.75.2,2,2,0,0,0-.61.48,1.86,1.86,0,0,0-.39.68,2,2,0,0,0-.1.77,2,2,0,0,0,.21.75,1.79,1.79,0,0,0,.47.62,2,2,0,0,0,.68.39l38.44,12.87a2,2,0,0,0,1.52-.11,2,2,0,0,0-.25-3.67Z" transform="translate(0 0)" style="fill:none;stroke:#282735;stroke-width:2px"/><path d="M174.44,211.86l-62.83-21.05L135,170.15a3.13,3.13,0,0,1,3.12-.63,3.09,3.09,0,0,1,1.37.91,3.26,3.26,0,0,1,.74,1.47L142.86,185l17-15a4,4,0,0,1,1.85-.92,4.12,4.12,0,0,1,2.06.13,4.06,4.06,0,0,1,1.72,1.14,4,4,0,0,1,.92,1.85Z" transform="translate(0 0)" style="fill:#9cffe5;stroke:#282735;stroke-width:2px"/><path d="M194,218.47l62.83,21.05-8.06-39.71a4,4,0,0,0-4.7-3.11,3.9,3.9,0,0,0-1.85.92l-17,15-2.66-13.06a3.19,3.19,0,0,0-.73-1.47,3.12,3.12,0,0,0-1.38-.91,3,3,0,0,0-1.64-.1,3.18,3.18,0,0,0-1.48.73Z" transform="translate(0 0)" style="fill:#9cffe5;stroke:#282735;stroke-width:2px"/><path d="M109.54,190.17l67,22.44a3,3,0,0,0,3.73-1.86l12.52-37.38a2.94,2.94,0,0,0-1.85-3.73l-67-22.44a2.91,2.91,0,0,0-2.24.16,3,3,0,0,0-1.48,1.7l-12.53,37.38a3,3,0,0,0,1.86,3.73Z" transform="translate(0 0)" style="fill:none;stroke:#282735;stroke-width:2px"/><path d="M83.83,314.29a1.82,1.82,0,0,0-.77-.1,1.87,1.87,0,0,0-.76.2,2,2,0,0,0-1,1.16,2,2,0,0,0-.09.77,2.25,2.25,0,0,0,.2.76,2,2,0,0,0,.48.61,1.9,1.9,0,0,0,.69.39L121,331a1.87,1.87,0,0,0,.78.1,1.82,1.82,0,0,0,.75-.2,2.2,2.2,0,0,0,.62-.48,1.94,1.94,0,0,0,.38-.67,1.89,1.89,0,0,0,.1-.78,2.14,2.14,0,0,0-.2-.75,2.07,2.07,0,0,0-.48-.62,2,2,0,0,0-.68-.38Z" transform="translate(0 0)" style="fill:none;stroke:#282735;stroke-width:2px"/><path d="M80.1,325.45a2,2,0,0,0-1.52.12,1.93,1.93,0,0,0-1,1.15,2,2,0,0,0,1.25,2.52l38.43,12.88a2,2,0,0,0,1.52-.11,2,2,0,0,0,1-1.15,2,2,0,0,0-1.25-2.53Z" transform="translate(0 0)" style="fill:none;stroke:#282735;stroke-width:2px"/><path d="M81.5,363.07a12.58,12.58,0,1,0-2.6-6.83A12.58,12.58,0,0,0,81.5,363.07Z" transform="translate(0 0)" style="fill:#282735;stroke:#282735;stroke-width:2px"/><path d="M189.28,401.41a1.89,1.89,0,0,0,.78.1,1.87,1.87,0,0,0,.76-.2,2,2,0,0,0,.61-.48,2,2,0,0,0,.49-1.45,1.92,1.92,0,0,0-.68-1.37,1.9,1.9,0,0,0-.69-.39l-38.43-12.88a2.29,2.29,0,0,0-.78-.1,2,2,0,0,0-.75.21,1.93,1.93,0,0,0-.63.47,2,2,0,0,0-.38.68,1.89,1.89,0,0,0-.1.78,2.14,2.14,0,0,0,.2.75,2,2,0,0,0,1.17,1Z" transform="translate(0 0)" style="fill:none;stroke:#282735;stroke-width:2px"/><path d="M193,390.25a2.29,2.29,0,0,0,.78.1,2,2,0,0,0,1.37-.69,1.91,1.91,0,0,0,.48-1.45,1.82,1.82,0,0,0-.2-.75,2.2,2.2,0,0,0-.48-.62,2,2,0,0,0-.68-.38l-38.43-12.88a2.07,2.07,0,0,0-.78-.1,1.78,1.78,0,0,0-.75.2,2,2,0,0,0-.62.48,2,2,0,0,0-.49,1.45,2,2,0,0,0,.21.76,1.88,1.88,0,0,0,.48.61,1.86,1.86,0,0,0,.68.39Z" transform="translate(0 0)" style="fill:none;stroke:#282735;stroke-width:2px"/><path d="M191.62,352.63a12.58,12.58,0,1,0,2.6,6.83A12.54,12.54,0,0,0,191.62,352.63Z" transform="translate(0 0)" style="fill:#282735;stroke:#282735;stroke-width:2px"/></svg>