<svg xmlns="http://www.w3.org/2000/svg" viewBox="0 0 540 344.36"><path d="M539,1H41V343.36H539Z" style="fill:none;stroke:#282735;stroke-width:2px"/><path d="M41,1H1V343.36H41Z" style="fill:none;stroke:#282735;stroke-width:2px"/><path d="M316.5,145V279.3m0-134.33L459.78,279.3M316.5,145h54.09m89.19,0V279.3m0-134.33L316.5,279.3M459.78,145H404.54M459.78,279.3H316.5M370.59,145c1.5,10.64,1.36,20.8-1,30.31h37.2a44.32,44.32,0,0,1-2.2-30.31m-34,0q-.43-3.08-1-6.2h37.2a51.07,51.07,0,0,0-2.2,6.2m-29.36,1.55h22.54v4.42H375.18Zm0,8.85h22.54v4.42H375.18Zm0,8.85h22.54v4.42H375.18Z" style="fill:none;stroke:#282735;stroke-width:2px"/><path d="M414.22,77.17a77,77,0,0,1-1.28,28.54h37.2a44.44,44.44,0,0,1-2.67-28.54m-33.25,0q-.5-3.94-1.28-8h37.2a49.42,49.42,0,0,0-2.67,8m-33.25,0H117.5v-22H459.12v22H447.47m-28.9-.23h22.55v4.43H418.57Zm0,8.85h22.55v4.43H418.57Zm0,8.85h22.55v4.43H418.57Z" style="fill:none;stroke:#282735;stroke-width:2px"/><path d="M13.4,180.79H29.93V164.26H13.4Z" style="fill:none;stroke:#282735;stroke-width:2px"/><path d="M13.4,140.84H29.93V124.31H13.4Z" style="fill:none;stroke:#282735;stroke-width:2px"/><path d="M19.56,204.21a5.51,5.51,0,1,0-6.16,6.16m6.16-6.16c0,.23,0,.46,0,.69a5.51,5.51,0,0,1-5.51,5.51,5.12,5.12,0,0,1-.69,0m6.16-6.16H29.93v16.54H13.4V210.37" style="fill:none;stroke:#282735;stroke-width:2px"/><path d="M150.33,103H261.39a3.45,3.45,0,0,0,0-6.89H151.73m-1.4,6.89a45,45,0,0,0,3.6,23.42h-37.2c2.87-11.34,2.52-23.61,0-36.51h37.2a50,50,0,0,0-2.2,6.2m-1.4,6.89a45.51,45.51,0,0,1,1.4-6.89m-29.37,1.55h22.55V102H122.36Zm0,8.85h22.55v4.42H122.36Zm0,8.85h22.55v4.42H122.36Z" style="fill:none;stroke:#282735;stroke-width:2px"/><path d="M120.86,187.3H261.39a2.45,2.45,0,0,1,2.44,2.45h0a2.44,2.44,0,0,1-2.44,2.44H120.86a2.44,2.44,0,0,1-2.44-2.44h0A2.45,2.45,0,0,1,120.86,187.3Z" style="fill:none;stroke:#282735;stroke-width:2px"/><path d="M120.86,209.35H261.39a2.44,2.44,0,0,1,2.44,2.44h0a2.45,2.45,0,0,1-2.44,2.45H120.86a2.45,2.45,0,0,1-2.44-2.45h0A2.44,2.44,0,0,1,120.86,209.35Z" style="fill:none;stroke:#282735;stroke-width:2px"/><path d="M120.86,232.08H261.39a2.44,2.44,0,0,1,2.44,2.44h0a2.45,2.45,0,0,1-2.44,2.45H120.86a2.45,2.45,0,0,1-2.44-2.45h0A2.44,2.44,0,0,1,120.86,232.08Z" style="fill:none;stroke:#282735;stroke-width:2px"/></svg>